<mxfile host="app.diagrams.net" modified="2023-12-07T19:15:04.854Z" agent="Mozilla/5.0 (Windows NT 10.0; Win64; x64) AppleWebKit/537.36 (KHTML, like Gecko) Chrome/119.0.0.0 Safari/537.36" etag="xK_stRhKoQI3Mw0LKjh4" version="22.1.7" type="device">
  <diagram name="Страница — 1" id="WU_-PWg-0vQ7AOEL0WZ2">
    <mxGraphModel dx="1288" dy="566" grid="1" gridSize="10" guides="1" tooltips="1" connect="1" arrows="1" fold="1" page="1" pageScale="1" pageWidth="827" pageHeight="1169" math="0" shadow="0">
      <root>
        <mxCell id="0" />
        <mxCell id="1" parent="0" />
        <mxCell id="EF2mI1Jkb3rUDJ_Epihl-1" value="Characters" style="swimlane;fontStyle=0;childLayout=stackLayout;horizontal=1;startSize=26;horizontalStack=0;resizeParent=1;resizeParentMax=0;resizeLast=0;collapsible=1;marginBottom=0;align=center;fontSize=14;" parent="1" vertex="1">
          <mxGeometry x="70" y="30" width="180" height="134" as="geometry" />
        </mxCell>
        <mxCell id="EF2mI1Jkb3rUDJ_Epihl-2" value="Id&amp;nbsp; &amp;nbsp; &amp;nbsp; &amp;nbsp; &amp;nbsp; &amp;nbsp; &amp;nbsp; &amp;nbsp; &amp;nbsp;int&amp;nbsp; &amp;nbsp; &amp;nbsp; &amp;nbsp; &amp;nbsp; &amp;nbsp; &amp;nbsp; &amp;nbsp; &amp;nbsp;PK" style="text;strokeColor=none;fillColor=none;spacingLeft=4;spacingRight=4;overflow=hidden;rotatable=0;points=[[0,0.5],[1,0.5]];portConstraint=eastwest;fontSize=12;whiteSpace=wrap;html=1;" parent="EF2mI1Jkb3rUDJ_Epihl-1" vertex="1">
          <mxGeometry y="26" width="180" height="30" as="geometry" />
        </mxCell>
        <mxCell id="EF2mI1Jkb3rUDJ_Epihl-3" value="Name&amp;nbsp; &amp;nbsp; &amp;nbsp;varchar(50)&amp;nbsp; &amp;nbsp; &amp;nbsp; &amp;nbsp; K1" style="text;strokeColor=none;fillColor=none;spacingLeft=4;spacingRight=4;overflow=hidden;rotatable=0;points=[[0,0.5],[1,0.5]];portConstraint=eastwest;fontSize=12;whiteSpace=wrap;html=1;" parent="EF2mI1Jkb3rUDJ_Epihl-1" vertex="1">
          <mxGeometry y="56" width="180" height="30" as="geometry" />
        </mxCell>
        <mxCell id="EF2mI1Jkb3rUDJ_Epihl-4" value="Level&amp;nbsp; &amp;nbsp; &amp;nbsp; &amp;nbsp; &amp;nbsp; &amp;nbsp; int&amp;nbsp; &amp;nbsp; &amp;nbsp; &amp;nbsp; &amp;nbsp; &amp;nbsp; &amp;nbsp; &amp;nbsp; FK1" style="text;strokeColor=none;fillColor=none;spacingLeft=4;spacingRight=4;overflow=hidden;rotatable=0;points=[[0,0.5],[1,0.5]];portConstraint=eastwest;fontSize=12;whiteSpace=wrap;html=1;" parent="EF2mI1Jkb3rUDJ_Epihl-1" vertex="1">
          <mxGeometry y="86" width="180" height="24" as="geometry" />
        </mxCell>
        <mxCell id="EF2mI1Jkb3rUDJ_Epihl-5" value="Rank&amp;nbsp; &amp;nbsp; &amp;nbsp; &amp;nbsp; &amp;nbsp; &amp;nbsp; int&amp;nbsp; &amp;nbsp; &amp;nbsp; &amp;nbsp; &amp;nbsp; &amp;nbsp; &amp;nbsp; &amp;nbsp; FK2" style="text;strokeColor=none;fillColor=none;spacingLeft=4;spacingRight=4;overflow=hidden;rotatable=0;points=[[0,0.5],[1,0.5]];portConstraint=eastwest;fontSize=12;whiteSpace=wrap;html=1;" parent="EF2mI1Jkb3rUDJ_Epihl-1" vertex="1">
          <mxGeometry y="110" width="180" height="24" as="geometry" />
        </mxCell>
        <mxCell id="EF2mI1Jkb3rUDJ_Epihl-6" value="Resources" style="swimlane;fontStyle=0;childLayout=stackLayout;horizontal=1;startSize=26;horizontalStack=0;resizeParent=1;resizeParentMax=0;resizeLast=0;collapsible=1;marginBottom=0;align=center;fontSize=14;" parent="1" vertex="1">
          <mxGeometry x="970" y="230" width="210" height="134" as="geometry" />
        </mxCell>
        <mxCell id="EF2mI1Jkb3rUDJ_Epihl-7" value="Id&amp;nbsp; &amp;nbsp; &amp;nbsp; &amp;nbsp; &amp;nbsp; &amp;nbsp; &amp;nbsp; &amp;nbsp; &amp;nbsp;&lt;span style=&quot;white-space: pre;&quot;&gt;&#x9;&lt;/span&gt;&amp;nbsp; &amp;nbsp; &amp;nbsp; &amp;nbsp;int&amp;nbsp; &amp;nbsp; &amp;nbsp; &amp;nbsp; &amp;nbsp; &amp;nbsp; &amp;nbsp; &amp;nbsp; &amp;nbsp; &amp;nbsp; PK" style="text;strokeColor=none;fillColor=none;spacingLeft=4;spacingRight=4;overflow=hidden;rotatable=0;points=[[0,0.5],[1,0.5]];portConstraint=eastwest;fontSize=12;whiteSpace=wrap;html=1;" parent="EF2mI1Jkb3rUDJ_Epihl-6" vertex="1">
          <mxGeometry y="26" width="210" height="30" as="geometry" />
        </mxCell>
        <mxCell id="EF2mI1Jkb3rUDJ_Epihl-8" value="Name&amp;nbsp; &amp;nbsp; &amp;nbsp; &amp;nbsp; &lt;span style=&quot;white-space: pre;&quot;&gt;&#x9;&lt;/span&gt;&amp;nbsp; &amp;nbsp; varchar(50)&amp;nbsp; &amp;nbsp; &amp;nbsp; &amp;nbsp; K1" style="text;strokeColor=none;fillColor=none;spacingLeft=4;spacingRight=4;overflow=hidden;rotatable=0;points=[[0,0.5],[1,0.5]];portConstraint=eastwest;fontSize=12;whiteSpace=wrap;html=1;" parent="EF2mI1Jkb3rUDJ_Epihl-6" vertex="1">
          <mxGeometry y="56" width="210" height="30" as="geometry" />
        </mxCell>
        <mxCell id="EF2mI1Jkb3rUDJ_Epihl-9" value="Rarity&amp;nbsp; &amp;nbsp; &amp;nbsp; &amp;nbsp; &amp;nbsp; &amp;nbsp; &amp;nbsp; &amp;nbsp; &amp;nbsp; &amp;nbsp; &amp;nbsp; &amp;nbsp; int" style="text;strokeColor=none;fillColor=none;spacingLeft=4;spacingRight=4;overflow=hidden;rotatable=0;points=[[0,0.5],[1,0.5]];portConstraint=eastwest;fontSize=12;whiteSpace=wrap;html=1;" parent="EF2mI1Jkb3rUDJ_Epihl-6" vertex="1">
          <mxGeometry y="86" width="210" height="24" as="geometry" />
        </mxCell>
        <mxCell id="EF2mI1Jkb3rUDJ_Epihl-10" value="ResourceClassId&amp;nbsp; &amp;nbsp; &amp;nbsp; &amp;nbsp;int&amp;nbsp; &amp;nbsp; &amp;nbsp; &amp;nbsp; &amp;nbsp; &amp;nbsp; &amp;nbsp; FK9" style="text;strokeColor=none;fillColor=none;spacingLeft=4;spacingRight=4;overflow=hidden;rotatable=0;points=[[0,0.5],[1,0.5]];portConstraint=eastwest;fontSize=12;whiteSpace=wrap;html=1;" parent="EF2mI1Jkb3rUDJ_Epihl-6" vertex="1">
          <mxGeometry y="110" width="210" height="24" as="geometry" />
        </mxCell>
        <mxCell id="EF2mI1Jkb3rUDJ_Epihl-11" value="ResourceClasses" style="swimlane;fontStyle=0;childLayout=stackLayout;horizontal=1;startSize=26;horizontalStack=0;resizeParent=1;resizeParentMax=0;resizeLast=0;collapsible=1;marginBottom=0;align=center;fontSize=14;" parent="1" vertex="1">
          <mxGeometry x="720" y="240" width="180" height="86" as="geometry" />
        </mxCell>
        <mxCell id="EF2mI1Jkb3rUDJ_Epihl-12" value="Id&amp;nbsp; &amp;nbsp; &amp;nbsp; &amp;nbsp; &amp;nbsp; &amp;nbsp; &amp;nbsp; &amp;nbsp; &amp;nbsp; &amp;nbsp; int&amp;nbsp; &amp;nbsp; &amp;nbsp; &amp;nbsp; &amp;nbsp; &amp;nbsp; &amp;nbsp; &amp;nbsp; &amp;nbsp; PK" style="text;strokeColor=none;fillColor=none;spacingLeft=4;spacingRight=4;overflow=hidden;rotatable=0;points=[[0,0.5],[1,0.5]];portConstraint=eastwest;fontSize=12;whiteSpace=wrap;html=1;" parent="EF2mI1Jkb3rUDJ_Epihl-11" vertex="1">
          <mxGeometry y="26" width="180" height="30" as="geometry" />
        </mxCell>
        <mxCell id="EF2mI1Jkb3rUDJ_Epihl-13" value="Name&amp;nbsp; &amp;nbsp; &amp;nbsp;resourceClass&amp;nbsp; &amp;nbsp; &amp;nbsp; &amp;nbsp; K1" style="text;strokeColor=none;fillColor=none;spacingLeft=4;spacingRight=4;overflow=hidden;rotatable=0;points=[[0,0.5],[1,0.5]];portConstraint=eastwest;fontSize=12;whiteSpace=wrap;html=1;" parent="EF2mI1Jkb3rUDJ_Epihl-11" vertex="1">
          <mxGeometry y="56" width="180" height="30" as="geometry" />
        </mxCell>
        <mxCell id="EF2mI1Jkb3rUDJ_Epihl-14" value="ResourceCountForCharacterElevations" style="swimlane;fontStyle=0;childLayout=stackLayout;horizontal=1;startSize=26;horizontalStack=0;resizeParent=1;resizeParentMax=0;resizeLast=0;collapsible=1;marginBottom=0;align=center;fontSize=14;" parent="1" vertex="1">
          <mxGeometry x="320" y="164" width="290" height="116" as="geometry" />
        </mxCell>
        <mxCell id="EF2mI1Jkb3rUDJ_Epihl-15" value="Rank&amp;nbsp; &amp;nbsp; &amp;nbsp; &amp;nbsp; &amp;nbsp; &amp;nbsp; &amp;nbsp; &amp;nbsp; &amp;nbsp; &amp;nbsp; &amp;nbsp; &amp;nbsp; &amp;nbsp; &amp;nbsp; &amp;nbsp; &amp;nbsp; &amp;nbsp; int&amp;nbsp; &amp;nbsp; &amp;nbsp; &amp;nbsp; &amp;nbsp; &amp;nbsp; &amp;nbsp; &amp;nbsp; &amp;nbsp; &amp;nbsp;PK&amp;nbsp; &amp;nbsp;FK5" style="text;strokeColor=none;fillColor=none;spacingLeft=4;spacingRight=4;overflow=hidden;rotatable=0;points=[[0,0.5],[1,0.5]];portConstraint=eastwest;fontSize=12;whiteSpace=wrap;html=1;" parent="EF2mI1Jkb3rUDJ_Epihl-14" vertex="1">
          <mxGeometry y="26" width="290" height="30" as="geometry" />
        </mxCell>
        <mxCell id="EF2mI1Jkb3rUDJ_Epihl-16" value="ResourceClassId&amp;nbsp; &amp;nbsp; &amp;nbsp; &amp;nbsp; &amp;nbsp; &amp;nbsp; &amp;nbsp; &amp;nbsp; int&amp;nbsp; &amp;nbsp; &amp;nbsp; &amp;nbsp; &amp;nbsp; &amp;nbsp; &amp;nbsp; &amp;nbsp; &amp;nbsp; PK&amp;nbsp; &amp;nbsp;FK6" style="text;strokeColor=none;fillColor=none;spacingLeft=4;spacingRight=4;overflow=hidden;rotatable=0;points=[[0,0.5],[1,0.5]];portConstraint=eastwest;fontSize=12;whiteSpace=wrap;html=1;" parent="EF2mI1Jkb3rUDJ_Epihl-14" vertex="1">
          <mxGeometry y="56" width="290" height="30" as="geometry" />
        </mxCell>
        <mxCell id="EF2mI1Jkb3rUDJ_Epihl-17" value="ResourceCount&amp;nbsp; &amp;nbsp; &amp;nbsp; &amp;nbsp; &amp;nbsp; &amp;nbsp; &amp;nbsp; &amp;nbsp; &amp;nbsp; int" style="text;strokeColor=none;fillColor=none;spacingLeft=4;spacingRight=4;overflow=hidden;rotatable=0;points=[[0,0.5],[1,0.5]];portConstraint=eastwest;fontSize=12;whiteSpace=wrap;html=1;" parent="EF2mI1Jkb3rUDJ_Epihl-14" vertex="1">
          <mxGeometry y="86" width="290" height="30" as="geometry" />
        </mxCell>
        <mxCell id="EF2mI1Jkb3rUDJ_Epihl-18" value="CharacterLevels" style="swimlane;fontStyle=0;childLayout=stackLayout;horizontal=1;startSize=26;horizontalStack=0;resizeParent=1;resizeParentMax=0;resizeLast=0;collapsible=1;marginBottom=0;align=center;fontSize=14;" parent="1" vertex="1">
          <mxGeometry x="320" y="54" width="190" height="86" as="geometry" />
        </mxCell>
        <mxCell id="EF2mI1Jkb3rUDJ_Epihl-19" value="Level&amp;nbsp; &amp;nbsp; &amp;nbsp; &amp;nbsp; &amp;nbsp; &amp;nbsp; &amp;nbsp; &amp;nbsp; &amp;nbsp; &amp;nbsp;int&amp;nbsp; &amp;nbsp; &amp;nbsp; &amp;nbsp; &amp;nbsp; &amp;nbsp; PK" style="text;strokeColor=none;fillColor=none;spacingLeft=4;spacingRight=4;overflow=hidden;rotatable=0;points=[[0,0.5],[1,0.5]];portConstraint=eastwest;fontSize=12;whiteSpace=wrap;html=1;" parent="EF2mI1Jkb3rUDJ_Epihl-18" vertex="1">
          <mxGeometry y="26" width="190" height="30" as="geometry" />
        </mxCell>
        <mxCell id="EF2mI1Jkb3rUDJ_Epihl-20" value="Experience&amp;nbsp; &amp;nbsp; &amp;nbsp; &amp;nbsp; &amp;nbsp; int&amp;nbsp; &amp;nbsp; &amp;nbsp; &amp;nbsp; &amp;nbsp; &amp;nbsp; &amp;nbsp; &amp;nbsp; &amp;nbsp;&amp;nbsp;" style="text;strokeColor=none;fillColor=none;spacingLeft=4;spacingRight=4;overflow=hidden;rotatable=0;points=[[0,0.5],[1,0.5]];portConstraint=eastwest;fontSize=12;whiteSpace=wrap;html=1;" parent="EF2mI1Jkb3rUDJ_Epihl-18" vertex="1">
          <mxGeometry y="56" width="190" height="30" as="geometry" />
        </mxCell>
        <mxCell id="EF2mI1Jkb3rUDJ_Epihl-21" value="Weapons" style="swimlane;fontStyle=0;childLayout=stackLayout;horizontal=1;startSize=26;horizontalStack=0;resizeParent=1;resizeParentMax=0;resizeLast=0;collapsible=1;marginBottom=0;align=center;fontSize=14;" parent="1" vertex="1">
          <mxGeometry x="67.5" y="350" width="160" height="134" as="geometry" />
        </mxCell>
        <mxCell id="EF2mI1Jkb3rUDJ_Epihl-22" value="Id&amp;nbsp; &amp;nbsp; &amp;nbsp; &amp;nbsp; &amp;nbsp; &amp;nbsp; &amp;nbsp; &amp;nbsp; &amp;nbsp;int&amp;nbsp; &amp;nbsp; &amp;nbsp; &amp;nbsp; &amp;nbsp; &amp;nbsp; PK" style="text;strokeColor=none;fillColor=none;spacingLeft=4;spacingRight=4;overflow=hidden;rotatable=0;points=[[0,0.5],[1,0.5]];portConstraint=eastwest;fontSize=12;whiteSpace=wrap;html=1;" parent="EF2mI1Jkb3rUDJ_Epihl-21" vertex="1">
          <mxGeometry y="26" width="160" height="30" as="geometry" />
        </mxCell>
        <mxCell id="EF2mI1Jkb3rUDJ_Epihl-23" value="Name&amp;nbsp; &amp;nbsp; varchar(50)&amp;nbsp; &amp;nbsp; K1" style="text;strokeColor=none;fillColor=none;spacingLeft=4;spacingRight=4;overflow=hidden;rotatable=0;points=[[0,0.5],[1,0.5]];portConstraint=eastwest;fontSize=12;whiteSpace=wrap;html=1;" parent="EF2mI1Jkb3rUDJ_Epihl-21" vertex="1">
          <mxGeometry y="56" width="160" height="30" as="geometry" />
        </mxCell>
        <mxCell id="EF2mI1Jkb3rUDJ_Epihl-24" value="Level&amp;nbsp; &amp;nbsp; &amp;nbsp; &amp;nbsp; &amp;nbsp; &amp;nbsp; int&amp;nbsp; &amp;nbsp; &amp;nbsp; &amp;nbsp; &amp;nbsp; &amp;nbsp;FK3" style="text;strokeColor=none;fillColor=none;spacingLeft=4;spacingRight=4;overflow=hidden;rotatable=0;points=[[0,0.5],[1,0.5]];portConstraint=eastwest;fontSize=12;whiteSpace=wrap;html=1;" parent="EF2mI1Jkb3rUDJ_Epihl-21" vertex="1">
          <mxGeometry y="86" width="160" height="24" as="geometry" />
        </mxCell>
        <mxCell id="EF2mI1Jkb3rUDJ_Epihl-25" value="Rank&amp;nbsp; &amp;nbsp; &amp;nbsp; &amp;nbsp; &amp;nbsp; &amp;nbsp; int&amp;nbsp; &amp;nbsp; &amp;nbsp; &amp;nbsp; &amp;nbsp; &amp;nbsp;FK4" style="text;strokeColor=none;fillColor=none;spacingLeft=4;spacingRight=4;overflow=hidden;rotatable=0;points=[[0,0.5],[1,0.5]];portConstraint=eastwest;fontSize=12;whiteSpace=wrap;html=1;" parent="EF2mI1Jkb3rUDJ_Epihl-21" vertex="1">
          <mxGeometry y="110" width="160" height="24" as="geometry" />
        </mxCell>
        <mxCell id="EF2mI1Jkb3rUDJ_Epihl-26" value="ResourceCountForWeaponElevations" style="swimlane;fontStyle=0;childLayout=stackLayout;horizontal=1;startSize=26;horizontalStack=0;resizeParent=1;resizeParentMax=0;resizeLast=0;collapsible=1;marginBottom=0;align=center;fontSize=14;" parent="1" vertex="1">
          <mxGeometry x="320" y="302" width="320" height="146" as="geometry" />
        </mxCell>
        <mxCell id="EF2mI1Jkb3rUDJ_Epihl-27" value="Rank&amp;nbsp; &amp;nbsp; &amp;nbsp; &amp;nbsp; &amp;nbsp; &amp;nbsp; &amp;nbsp; &amp;nbsp; &amp;nbsp; &amp;nbsp; &amp;nbsp; &amp;nbsp; &amp;nbsp; &amp;nbsp; &amp;nbsp; &amp;nbsp; &amp;nbsp; &amp;nbsp; int&amp;nbsp; &amp;nbsp; &amp;nbsp; &amp;nbsp; &amp;nbsp; &amp;nbsp; &amp;nbsp; &amp;nbsp; &amp;nbsp; &amp;nbsp;PK&amp;nbsp; &amp;nbsp; &amp;nbsp;FK7" style="text;strokeColor=none;fillColor=none;spacingLeft=4;spacingRight=4;overflow=hidden;rotatable=0;points=[[0,0.5],[1,0.5]];portConstraint=eastwest;fontSize=12;whiteSpace=wrap;html=1;" parent="EF2mI1Jkb3rUDJ_Epihl-26" vertex="1">
          <mxGeometry y="26" width="320" height="30" as="geometry" />
        </mxCell>
        <mxCell id="EF2mI1Jkb3rUDJ_Epihl-28" value="ResourceClassId&amp;nbsp; &amp;nbsp; &amp;nbsp; &amp;nbsp; &amp;nbsp; &amp;nbsp; &amp;nbsp; &amp;nbsp; &amp;nbsp; int&amp;nbsp; &amp;nbsp; &amp;nbsp; &amp;nbsp; &amp;nbsp; &amp;nbsp; &amp;nbsp; &amp;nbsp; &amp;nbsp; PK&amp;nbsp; &amp;nbsp; &amp;nbsp;FK8" style="text;strokeColor=none;fillColor=none;spacingLeft=4;spacingRight=4;overflow=hidden;rotatable=0;points=[[0,0.5],[1,0.5]];portConstraint=eastwest;fontSize=12;whiteSpace=wrap;html=1;" parent="EF2mI1Jkb3rUDJ_Epihl-26" vertex="1">
          <mxGeometry y="56" width="320" height="30" as="geometry" />
        </mxCell>
        <mxCell id="EF2mI1Jkb3rUDJ_Epihl-29" value="ResourceType&amp;nbsp; &amp;nbsp; &amp;nbsp; &amp;nbsp; &amp;nbsp; &amp;nbsp; &amp;nbsp; &amp;nbsp; &amp;nbsp; &amp;nbsp; &amp;nbsp; int&amp;nbsp; &amp;nbsp; &amp;nbsp; &amp;nbsp; &amp;nbsp; &amp;nbsp; &amp;nbsp; &amp;nbsp; &amp;nbsp; &amp;nbsp;PK" style="text;strokeColor=none;fillColor=none;spacingLeft=4;spacingRight=4;overflow=hidden;rotatable=0;points=[[0,0.5],[1,0.5]];portConstraint=eastwest;fontSize=12;whiteSpace=wrap;html=1;" parent="EF2mI1Jkb3rUDJ_Epihl-26" vertex="1">
          <mxGeometry y="86" width="320" height="30" as="geometry" />
        </mxCell>
        <mxCell id="EF2mI1Jkb3rUDJ_Epihl-30" value="ResourceCount&amp;nbsp; &amp;nbsp; &amp;nbsp; &amp;nbsp; &amp;nbsp; &amp;nbsp; &amp;nbsp; &amp;nbsp; &amp;nbsp; &amp;nbsp; int" style="text;strokeColor=none;fillColor=none;spacingLeft=4;spacingRight=4;overflow=hidden;rotatable=0;points=[[0,0.5],[1,0.5]];portConstraint=eastwest;fontSize=12;whiteSpace=wrap;html=1;" parent="EF2mI1Jkb3rUDJ_Epihl-26" vertex="1">
          <mxGeometry y="116" width="320" height="30" as="geometry" />
        </mxCell>
        <mxCell id="EF2mI1Jkb3rUDJ_Epihl-31" value="WeaponLevels" style="swimlane;fontStyle=0;childLayout=stackLayout;horizontal=1;startSize=26;horizontalStack=0;resizeParent=1;resizeParentMax=0;resizeLast=0;collapsible=1;marginBottom=0;align=center;fontSize=14;" parent="1" vertex="1">
          <mxGeometry x="62.5" y="547" width="175" height="86" as="geometry" />
        </mxCell>
        <mxCell id="EF2mI1Jkb3rUDJ_Epihl-32" value="Level&amp;nbsp; &amp;nbsp; &amp;nbsp; &amp;nbsp; &amp;nbsp; &amp;nbsp; &amp;nbsp; &amp;nbsp; &amp;nbsp; int&amp;nbsp; &amp;nbsp; &amp;nbsp; &amp;nbsp; &amp;nbsp;PK" style="text;strokeColor=none;fillColor=none;spacingLeft=4;spacingRight=4;overflow=hidden;rotatable=0;points=[[0,0.5],[1,0.5]];portConstraint=eastwest;fontSize=12;whiteSpace=wrap;html=1;" parent="EF2mI1Jkb3rUDJ_Epihl-31" vertex="1">
          <mxGeometry y="26" width="175" height="30" as="geometry" />
        </mxCell>
        <mxCell id="EF2mI1Jkb3rUDJ_Epihl-33" value="Experience&amp;nbsp; &amp;nbsp; &amp;nbsp; &amp;nbsp; &amp;nbsp;int" style="text;strokeColor=none;fillColor=none;spacingLeft=4;spacingRight=4;overflow=hidden;rotatable=0;points=[[0,0.5],[1,0.5]];portConstraint=eastwest;fontSize=12;whiteSpace=wrap;html=1;" parent="EF2mI1Jkb3rUDJ_Epihl-31" vertex="1">
          <mxGeometry y="56" width="175" height="30" as="geometry" />
        </mxCell>
        <mxCell id="EF2mI1Jkb3rUDJ_Epihl-34" value="Inventory" style="swimlane;fontStyle=0;childLayout=stackLayout;horizontal=1;startSize=26;horizontalStack=0;resizeParent=1;resizeParentMax=0;resizeLast=0;collapsible=1;marginBottom=0;align=center;fontSize=14;" parent="1" vertex="1">
          <mxGeometry x="980" y="54" width="200" height="86" as="geometry" />
        </mxCell>
        <mxCell id="EF2mI1Jkb3rUDJ_Epihl-35" value="ResourceId&amp;nbsp; &amp;nbsp; &amp;nbsp; &amp;nbsp; &amp;nbsp; &amp;nbsp; int&amp;nbsp; &amp;nbsp; &amp;nbsp; PK&amp;nbsp; &amp;nbsp;FK10" style="text;strokeColor=none;fillColor=none;spacingLeft=4;spacingRight=4;overflow=hidden;rotatable=0;points=[[0,0.5],[1,0.5]];portConstraint=eastwest;fontSize=12;whiteSpace=wrap;html=1;" parent="EF2mI1Jkb3rUDJ_Epihl-34" vertex="1">
          <mxGeometry y="26" width="200" height="30" as="geometry" />
        </mxCell>
        <mxCell id="EF2mI1Jkb3rUDJ_Epihl-36" value="ResourceCount&amp;nbsp; &amp;nbsp; &amp;nbsp; int" style="text;strokeColor=none;fillColor=none;spacingLeft=4;spacingRight=4;overflow=hidden;rotatable=0;points=[[0,0.5],[1,0.5]];portConstraint=eastwest;fontSize=12;whiteSpace=wrap;html=1;" parent="EF2mI1Jkb3rUDJ_Epihl-34" vertex="1">
          <mxGeometry y="56" width="200" height="30" as="geometry" />
        </mxCell>
        <mxCell id="EF2mI1Jkb3rUDJ_Epihl-47" value="Ranks" style="swimlane;fontStyle=0;childLayout=stackLayout;horizontal=1;startSize=26;horizontalStack=0;resizeParent=1;resizeParentMax=0;resizeLast=0;collapsible=1;marginBottom=0;align=center;fontSize=14;" parent="1" vertex="1">
          <mxGeometry x="70" y="180" width="140" height="116" as="geometry" />
        </mxCell>
        <mxCell id="EF2mI1Jkb3rUDJ_Epihl-48" value="Rank&amp;nbsp; &amp;nbsp; &amp;nbsp; &amp;nbsp; &amp;nbsp; int&amp;nbsp; &amp;nbsp; &amp;nbsp; &amp;nbsp; &amp;nbsp; PK" style="text;strokeColor=none;fillColor=none;spacingLeft=4;spacingRight=4;overflow=hidden;rotatable=0;points=[[0,0.5],[1,0.5]];portConstraint=eastwest;fontSize=12;whiteSpace=wrap;html=1;" parent="EF2mI1Jkb3rUDJ_Epihl-47" vertex="1">
          <mxGeometry y="26" width="140" height="30" as="geometry" />
        </mxCell>
        <mxCell id="EMzGwfkOC8ML3HAJngc--5" value="MinLevel&amp;nbsp; &amp;nbsp; int&amp;nbsp; &amp;nbsp; &amp;nbsp; &amp;nbsp; &amp;nbsp; K1" style="text;strokeColor=none;fillColor=none;spacingLeft=4;spacingRight=4;overflow=hidden;rotatable=0;points=[[0,0.5],[1,0.5]];portConstraint=eastwest;fontSize=12;whiteSpace=wrap;html=1;" parent="EF2mI1Jkb3rUDJ_Epihl-47" vertex="1">
          <mxGeometry y="56" width="140" height="30" as="geometry" />
        </mxCell>
        <mxCell id="EMzGwfkOC8ML3HAJngc--6" value="MaxLevel&amp;nbsp; &amp;nbsp;int&amp;nbsp; &amp;nbsp; &amp;nbsp; &amp;nbsp; &amp;nbsp; K2" style="text;strokeColor=none;fillColor=none;spacingLeft=4;spacingRight=4;overflow=hidden;rotatable=0;points=[[0,0.5],[1,0.5]];portConstraint=eastwest;fontSize=12;whiteSpace=wrap;html=1;" parent="EF2mI1Jkb3rUDJ_Epihl-47" vertex="1">
          <mxGeometry y="86" width="140" height="30" as="geometry" />
        </mxCell>
        <mxCell id="EF2mI1Jkb3rUDJ_Epihl-51" value="" style="edgeStyle=orthogonalEdgeStyle;rounded=0;orthogonalLoop=1;jettySize=auto;html=1;" parent="1" source="EF2mI1Jkb3rUDJ_Epihl-4" target="EF2mI1Jkb3rUDJ_Epihl-19" edge="1">
          <mxGeometry relative="1" as="geometry" />
        </mxCell>
        <mxCell id="EF2mI1Jkb3rUDJ_Epihl-52" value="FK1" style="edgeLabel;html=1;align=center;verticalAlign=middle;resizable=0;points=[];" parent="EF2mI1Jkb3rUDJ_Epihl-51" vertex="1" connectable="0">
          <mxGeometry x="0.0019" y="2" relative="1" as="geometry">
            <mxPoint as="offset" />
          </mxGeometry>
        </mxCell>
        <mxCell id="EF2mI1Jkb3rUDJ_Epihl-59" style="edgeStyle=orthogonalEdgeStyle;rounded=0;orthogonalLoop=1;jettySize=auto;html=1;exitX=0;exitY=0.5;exitDx=0;exitDy=0;entryX=0;entryY=0.5;entryDx=0;entryDy=0;" parent="1" source="EF2mI1Jkb3rUDJ_Epihl-5" target="EF2mI1Jkb3rUDJ_Epihl-48" edge="1">
          <mxGeometry relative="1" as="geometry">
            <Array as="points">
              <mxPoint x="50" y="152" />
              <mxPoint x="50" y="221" />
            </Array>
          </mxGeometry>
        </mxCell>
        <mxCell id="EF2mI1Jkb3rUDJ_Epihl-61" value="FK2" style="edgeLabel;html=1;align=center;verticalAlign=middle;resizable=0;points=[];" parent="EF2mI1Jkb3rUDJ_Epihl-59" vertex="1" connectable="0">
          <mxGeometry x="-0.1885" y="-1" relative="1" as="geometry">
            <mxPoint as="offset" />
          </mxGeometry>
        </mxCell>
        <mxCell id="EF2mI1Jkb3rUDJ_Epihl-60" style="edgeStyle=orthogonalEdgeStyle;rounded=0;orthogonalLoop=1;jettySize=auto;html=1;exitX=0;exitY=0.5;exitDx=0;exitDy=0;entryX=0;entryY=0.5;entryDx=0;entryDy=0;" parent="1" source="EF2mI1Jkb3rUDJ_Epihl-25" target="EF2mI1Jkb3rUDJ_Epihl-48" edge="1">
          <mxGeometry relative="1" as="geometry" />
        </mxCell>
        <mxCell id="EF2mI1Jkb3rUDJ_Epihl-64" value="FK4" style="edgeLabel;html=1;align=center;verticalAlign=middle;resizable=0;points=[];" parent="EF2mI1Jkb3rUDJ_Epihl-60" vertex="1" connectable="0">
          <mxGeometry x="-0.0249" y="2" relative="1" as="geometry">
            <mxPoint as="offset" />
          </mxGeometry>
        </mxCell>
        <mxCell id="EF2mI1Jkb3rUDJ_Epihl-62" style="edgeStyle=orthogonalEdgeStyle;rounded=0;orthogonalLoop=1;jettySize=auto;html=1;exitX=1;exitY=0.5;exitDx=0;exitDy=0;entryX=1;entryY=0.5;entryDx=0;entryDy=0;" parent="1" source="EF2mI1Jkb3rUDJ_Epihl-24" target="EF2mI1Jkb3rUDJ_Epihl-32" edge="1">
          <mxGeometry relative="1" as="geometry" />
        </mxCell>
        <mxCell id="EF2mI1Jkb3rUDJ_Epihl-63" value="FK3" style="edgeLabel;html=1;align=center;verticalAlign=middle;resizable=0;points=[];" parent="EF2mI1Jkb3rUDJ_Epihl-62" vertex="1" connectable="0">
          <mxGeometry x="-0.1747" y="2" relative="1" as="geometry">
            <mxPoint as="offset" />
          </mxGeometry>
        </mxCell>
        <mxCell id="EF2mI1Jkb3rUDJ_Epihl-68" style="edgeStyle=orthogonalEdgeStyle;rounded=0;orthogonalLoop=1;jettySize=auto;html=1;exitX=1;exitY=0.5;exitDx=0;exitDy=0;entryX=0;entryY=0.5;entryDx=0;entryDy=0;" parent="1" source="EF2mI1Jkb3rUDJ_Epihl-16" target="EF2mI1Jkb3rUDJ_Epihl-12" edge="1">
          <mxGeometry relative="1" as="geometry" />
        </mxCell>
        <mxCell id="EF2mI1Jkb3rUDJ_Epihl-71" value="FK6" style="edgeLabel;html=1;align=center;verticalAlign=middle;resizable=0;points=[];" parent="EF2mI1Jkb3rUDJ_Epihl-68" vertex="1" connectable="0">
          <mxGeometry x="-0.3165" y="1" relative="1" as="geometry">
            <mxPoint as="offset" />
          </mxGeometry>
        </mxCell>
        <mxCell id="EF2mI1Jkb3rUDJ_Epihl-70" style="edgeStyle=orthogonalEdgeStyle;rounded=0;orthogonalLoop=1;jettySize=auto;html=1;exitX=1;exitY=0.5;exitDx=0;exitDy=0;entryX=0;entryY=0.5;entryDx=0;entryDy=0;" parent="1" source="EF2mI1Jkb3rUDJ_Epihl-28" target="EF2mI1Jkb3rUDJ_Epihl-12" edge="1">
          <mxGeometry relative="1" as="geometry" />
        </mxCell>
        <mxCell id="EF2mI1Jkb3rUDJ_Epihl-72" value="FK8" style="edgeLabel;html=1;align=center;verticalAlign=middle;resizable=0;points=[];" parent="EF2mI1Jkb3rUDJ_Epihl-70" vertex="1" connectable="0">
          <mxGeometry x="-0.2023" y="1" relative="1" as="geometry">
            <mxPoint as="offset" />
          </mxGeometry>
        </mxCell>
        <mxCell id="EF2mI1Jkb3rUDJ_Epihl-73" style="edgeStyle=orthogonalEdgeStyle;rounded=0;orthogonalLoop=1;jettySize=auto;html=1;exitX=0;exitY=0.5;exitDx=0;exitDy=0;entryX=1;entryY=0.5;entryDx=0;entryDy=0;" parent="1" source="EF2mI1Jkb3rUDJ_Epihl-10" target="EF2mI1Jkb3rUDJ_Epihl-12" edge="1">
          <mxGeometry relative="1" as="geometry" />
        </mxCell>
        <mxCell id="EF2mI1Jkb3rUDJ_Epihl-74" value="FK9" style="edgeLabel;html=1;align=center;verticalAlign=middle;resizable=0;points=[];" parent="EF2mI1Jkb3rUDJ_Epihl-73" vertex="1" connectable="0">
          <mxGeometry x="0.2851" y="-1" relative="1" as="geometry">
            <mxPoint as="offset" />
          </mxGeometry>
        </mxCell>
        <mxCell id="EF2mI1Jkb3rUDJ_Epihl-75" style="edgeStyle=orthogonalEdgeStyle;rounded=0;orthogonalLoop=1;jettySize=auto;html=1;exitX=0;exitY=0.5;exitDx=0;exitDy=0;entryX=0;entryY=0.5;entryDx=0;entryDy=0;" parent="1" source="EF2mI1Jkb3rUDJ_Epihl-35" target="EF2mI1Jkb3rUDJ_Epihl-7" edge="1">
          <mxGeometry relative="1" as="geometry" />
        </mxCell>
        <mxCell id="EF2mI1Jkb3rUDJ_Epihl-76" value="FK10" style="edgeLabel;html=1;align=center;verticalAlign=middle;resizable=0;points=[];" parent="EF2mI1Jkb3rUDJ_Epihl-75" vertex="1" connectable="0">
          <mxGeometry x="-0.2388" y="-2" relative="1" as="geometry">
            <mxPoint as="offset" />
          </mxGeometry>
        </mxCell>
        <mxCell id="EMzGwfkOC8ML3HAJngc--7" value="" style="edgeStyle=orthogonalEdgeStyle;rounded=0;orthogonalLoop=1;jettySize=auto;html=1;entryX=1;entryY=0.5;entryDx=0;entryDy=0;" parent="1" source="EF2mI1Jkb3rUDJ_Epihl-15" target="EF2mI1Jkb3rUDJ_Epihl-48" edge="1">
          <mxGeometry relative="1" as="geometry" />
        </mxCell>
        <mxCell id="EMzGwfkOC8ML3HAJngc--9" value="FK5" style="edgeLabel;html=1;align=center;verticalAlign=middle;resizable=0;points=[];" parent="EMzGwfkOC8ML3HAJngc--7" vertex="1" connectable="0">
          <mxGeometry x="-0.3609" y="-2" relative="1" as="geometry">
            <mxPoint as="offset" />
          </mxGeometry>
        </mxCell>
        <mxCell id="EMzGwfkOC8ML3HAJngc--8" style="edgeStyle=orthogonalEdgeStyle;rounded=0;orthogonalLoop=1;jettySize=auto;html=1;exitX=0;exitY=0.5;exitDx=0;exitDy=0;entryX=1;entryY=0.5;entryDx=0;entryDy=0;" parent="1" source="EF2mI1Jkb3rUDJ_Epihl-27" target="EF2mI1Jkb3rUDJ_Epihl-48" edge="1">
          <mxGeometry relative="1" as="geometry" />
        </mxCell>
        <mxCell id="EMzGwfkOC8ML3HAJngc--10" value="FK7" style="edgeLabel;html=1;align=center;verticalAlign=middle;resizable=0;points=[];" parent="EMzGwfkOC8ML3HAJngc--8" vertex="1" connectable="0">
          <mxGeometry x="-0.6603" y="-1" relative="1" as="geometry">
            <mxPoint as="offset" />
          </mxGeometry>
        </mxCell>
        <mxCell id="GUYHTTqjsDFJLd0XxWQY-1" value="CharacterResources" style="swimlane;fontStyle=0;childLayout=stackLayout;horizontal=1;startSize=26;horizontalStack=0;resizeParent=1;resizeParentMax=0;resizeLast=0;collapsible=1;marginBottom=0;align=center;fontSize=14;" vertex="1" parent="1">
          <mxGeometry x="680" y="54" width="210" height="86" as="geometry" />
        </mxCell>
        <mxCell id="GUYHTTqjsDFJLd0XxWQY-2" value="CharacterId&amp;nbsp; &amp;nbsp; &amp;nbsp; int&amp;nbsp; &amp;nbsp; &amp;nbsp; &amp;nbsp; &amp;nbsp; &amp;nbsp; &amp;nbsp;PK&amp;nbsp; &amp;nbsp; FK11" style="text;strokeColor=none;fillColor=none;spacingLeft=4;spacingRight=4;overflow=hidden;rotatable=0;points=[[0,0.5],[1,0.5]];portConstraint=eastwest;fontSize=12;whiteSpace=wrap;html=1;" vertex="1" parent="GUYHTTqjsDFJLd0XxWQY-1">
          <mxGeometry y="26" width="210" height="30" as="geometry" />
        </mxCell>
        <mxCell id="GUYHTTqjsDFJLd0XxWQY-3" value="ResourceId&amp;nbsp; &amp;nbsp; &amp;nbsp; int&amp;nbsp; &amp;nbsp; &amp;nbsp; &amp;nbsp; &amp;nbsp; &amp;nbsp; &amp;nbsp;PK&amp;nbsp; &amp;nbsp; FK12" style="text;strokeColor=none;fillColor=none;spacingLeft=4;spacingRight=4;overflow=hidden;rotatable=0;points=[[0,0.5],[1,0.5]];portConstraint=eastwest;fontSize=12;whiteSpace=wrap;html=1;" vertex="1" parent="GUYHTTqjsDFJLd0XxWQY-1">
          <mxGeometry y="56" width="210" height="30" as="geometry" />
        </mxCell>
        <mxCell id="GUYHTTqjsDFJLd0XxWQY-4" value="" style="endArrow=classic;html=1;rounded=0;exitX=0;exitY=0.5;exitDx=0;exitDy=0;entryX=1;entryY=0.5;entryDx=0;entryDy=0;edgeStyle=orthogonalEdgeStyle;" edge="1" parent="1" source="GUYHTTqjsDFJLd0XxWQY-2" target="EF2mI1Jkb3rUDJ_Epihl-2">
          <mxGeometry width="50" height="50" relative="1" as="geometry">
            <mxPoint x="630" y="320" as="sourcePoint" />
            <mxPoint x="680" y="270" as="targetPoint" />
            <Array as="points">
              <mxPoint x="660" y="95" />
              <mxPoint x="660" y="40" />
              <mxPoint x="280" y="40" />
              <mxPoint x="280" y="71" />
            </Array>
          </mxGeometry>
        </mxCell>
        <mxCell id="GUYHTTqjsDFJLd0XxWQY-5" value="FK11" style="edgeLabel;html=1;align=center;verticalAlign=middle;resizable=0;points=[];" vertex="1" connectable="0" parent="GUYHTTqjsDFJLd0XxWQY-4">
          <mxGeometry x="-0.3481" y="1" relative="1" as="geometry">
            <mxPoint as="offset" />
          </mxGeometry>
        </mxCell>
        <mxCell id="GUYHTTqjsDFJLd0XxWQY-6" value="" style="endArrow=classic;html=1;rounded=0;exitX=1;exitY=0.5;exitDx=0;exitDy=0;entryX=0;entryY=0.5;entryDx=0;entryDy=0;edgeStyle=orthogonalEdgeStyle;" edge="1" parent="1" source="GUYHTTqjsDFJLd0XxWQY-3" target="EF2mI1Jkb3rUDJ_Epihl-7">
          <mxGeometry width="50" height="50" relative="1" as="geometry">
            <mxPoint x="630" y="220" as="sourcePoint" />
            <mxPoint x="680" y="170" as="targetPoint" />
            <Array as="points">
              <mxPoint x="930" y="125" />
              <mxPoint x="930" y="271" />
            </Array>
          </mxGeometry>
        </mxCell>
        <mxCell id="GUYHTTqjsDFJLd0XxWQY-7" value="FK12" style="edgeLabel;html=1;align=center;verticalAlign=middle;resizable=0;points=[];" vertex="1" connectable="0" parent="GUYHTTqjsDFJLd0XxWQY-6">
          <mxGeometry x="0.0425" y="-3" relative="1" as="geometry">
            <mxPoint as="offset" />
          </mxGeometry>
        </mxCell>
      </root>
    </mxGraphModel>
  </diagram>
</mxfile>
